<?xml version="1.0" encoding="iso-8859-1"?>
<!-- Generator: Adobe Illustrator 19.0.0, SVG Export Plug-In . SVG Version: 6.00 Build 0)  -->
<svg xmlns="http://www.w3.org/2000/svg" xmlns:xlink="http://www.w3.org/1999/xlink" version="1.1" id="Capa_1" x="0px" y="0px" viewBox="0 0 512 512" style="enable-background:new 0 0 512 512;" xml:space="preserve">
<g>
	<g>
		<path d="M464,480V48c0-8.832-7.168-16-16-16h-64c-8.832,0-16,7.168-16,16v432h-32V336c0-8.832-7.168-16-16-16h-64    c-8.832,0-16,7.168-16,16v144h-32V176c0-8.832-7.168-16-16-16h-64c-8.832,0-16,7.168-16,16v304H64V0H32v80H0v32h32v48H0v32h32v48    H0v32h32v48H0v32h32v48H0v32h32v64c0,8.832,7.168,16,16,16h80h64h64h64h64h64h64v-32H464z M176,480h-32V192h32V480z M304,480h-32    V352h32V480z M432,480h-32V64h32V480z"/>
	</g>
</g>
<g>
</g>
<g>
</g>
<g>
</g>
<g>
</g>
<g>
</g>
<g>
</g>
<g>
</g>
<g>
</g>
<g>
</g>
<g>
</g>
<g>
</g>
<g>
</g>
<g>
</g>
<g>
</g>
<g>
</g>
</svg>
