<?xml version="1.0" encoding="iso-8859-1"?>
<!-- Generator: Adobe Illustrator 19.0.0, SVG Export Plug-In . SVG Version: 6.00 Build 0)  -->
<svg xmlns="http://www.w3.org/2000/svg" xmlns:xlink="http://www.w3.org/1999/xlink" version="1.1" id="Capa_1" x="0px" y="0px" viewBox="0 0 512 512" style="enable-background:new 0 0 512 512;" xml:space="preserve">
<g>
	<g>
		<path d="M256,0C114.848,0,0,114.848,0,256s114.848,256,256,256s256-114.848,256-256S397.152,0,256,0z M272,32.816    C382.736,40.688,471.312,129.264,479.184,240H366.72c-7.04-48.944-45.776-87.68-94.72-94.72V32.816z M240,479.184    C123.952,470.928,32,374.112,32,256S123.952,41.072,240,32.816V145.28c-54.192,7.808-96,54.416-96,110.72    s41.808,102.912,96,110.72V479.184z M176,256c0-44.112,35.888-80,80-80s80,35.888,80,80s-35.888,80-80,80S176,300.112,176,256z     M272,479.184V366.72c48.944-7.056,87.68-45.776,94.72-94.72h112.464C471.312,382.736,382.736,471.312,272,479.184z"/>
	</g>
</g>
<g>
</g>
<g>
</g>
<g>
</g>
<g>
</g>
<g>
</g>
<g>
</g>
<g>
</g>
<g>
</g>
<g>
</g>
<g>
</g>
<g>
</g>
<g>
</g>
<g>
</g>
<g>
</g>
<g>
</g>
</svg>
