<?xml version="1.0" encoding="UTF-8" standalone="no" ?>
<!DOCTYPE svg PUBLIC "-//W3C//DTD SVG 1.1//EN" "http://www.w3.org/Graphics/SVG/1.1/DTD/svg11.dtd">
<svg xmlns="http://www.w3.org/2000/svg" xmlns:xlink="http://www.w3.org/1999/xlink" version="1.1" width="510" height="510" viewBox="0 0 510 510" xml:space="preserve">
<desc>Created with Fabric.js 1.7.22</desc>
<defs>
</defs>
<g id="icon" style="stroke: none; stroke-width: 1; stroke-dasharray: none; stroke-linecap: butt; stroke-linejoin: miter; stroke-miterlimit: 10; fill: none; fill-rule: nonzero; opacity: 1;" transform="translate(-2.8333333333333712 -2.8333333333333712) scale(5.67 5.67)" >
	<path d="M 90 44.939 c 0 11.294 -4.181 21.623 -11.061 29.539 l -11.16 -11.175 c 4.051 -5.028 6.484 -11.416 6.484 -18.364 c 0 -15.095 -11.459 -27.557 -26.123 -29.131 V 0 C 71.492 1.621 90 21.15 90 44.939 z" style="stroke: none; stroke-width: 1; stroke-dasharray: none; stroke-linecap: butt; stroke-linejoin: miter; stroke-miterlimit: 10; fill: rgb(240,196,25); fill-rule: nonzero; opacity: 1;" transform=" matrix(1 0 0 1 0 0) " stroke-linecap="round" />
	<path d="M 41.86 0 v 15.808 c -14.664 1.574 -26.123 14.036 -26.123 29.131 c 0 6.948 2.432 13.336 6.483 18.364 l -11.16 11.175 C 4.18 66.562 0 56.233 0 44.939 C 0 21.15 18.508 1.621 41.86 0 z" style="stroke: none; stroke-width: 1; stroke-dasharray: none; stroke-linecap: butt; stroke-linejoin: miter; stroke-miterlimit: 10; fill: rgb(85,96,128); fill-rule: nonzero; opacity: 1;" transform=" matrix(1 0 0 1 0 0) " stroke-linecap="round" />
	<path d="M 15.5 78.924 l 11.16 -11.175 c 5.022 4.056 11.4 6.492 18.34 6.492 c 6.939 0 13.318 -2.436 18.339 -6.492 l 11.16 11.175 C 66.593 85.814 56.279 90 45 90 C 33.721 90 23.406 85.814 15.5 78.924 z" style="stroke: none; stroke-width: 1; stroke-dasharray: none; stroke-linecap: butt; stroke-linejoin: miter; stroke-miterlimit: 10; fill: rgb(113,194,133); fill-rule: nonzero; opacity: 1;" transform=" matrix(1 0 0 1 0 0) " stroke-linecap="round" />
</g>
</svg>