<?xml version="1.0" encoding="iso-8859-1"?>
<!-- Generator: Adobe Illustrator 19.0.0, SVG Export Plug-In . SVG Version: 6.00 Build 0)  -->
<svg xmlns="http://www.w3.org/2000/svg" xmlns:xlink="http://www.w3.org/1999/xlink" version="1.1" id="Capa_1" x="0px" y="0px" viewBox="0 0 512 512" style="enable-background:new 0 0 512 512;" xml:space="preserve">
<g>
	<g>
		<path d="M64,480V0H32v80H0v32h32v48H0v32h32v48H0v32h32v48H0v32h32v48H0v32h32v64c0,8.832,7.168,16,16,16h464v-32H64z"/>
	</g>
</g>
<g>
	<g>
		<path d="M448,112.016c-26.464,0-48,21.536-48,48c0,7.376,1.808,14.304,4.8,20.56l-64.256,64.256    c-6.256-2.992-13.168-4.8-20.56-4.8c-7.392,0-14.304,1.808-20.56,4.8L283.2,228.576c2.992-6.256,4.8-13.168,4.8-20.56    c0-26.464-21.536-48-48-48s-48,21.536-48,48c0,7.376,1.808,14.304,4.8,20.56l-32.256,32.256c-6.256-2.992-13.168-4.8-20.56-4.8    c-26.464,0-48,21.536-48,48s21.552,47.984,48.016,47.984s48-21.536,48-48c0-7.392-1.824-14.32-4.816-20.576l32.24-32.24    c6.256,2.992,13.184,4.816,20.576,4.816c7.392,0,14.32-1.824,20.576-4.816l16.24,16.24c-2.992,6.256-4.816,13.184-4.816,20.576    c0,26.464,21.536,48,48,48s48-21.536,48-48c0-7.392-1.824-14.32-4.816-20.576l64.24-64.24c6.256,2.992,13.184,4.816,20.576,4.816    c26.464,0,48-21.536,48-48S474.464,112.016,448,112.016z M144,320.016c-8.816,0-16-7.184-16-16c0-8.816,7.184-16,16-16    s16,7.184,16,16C160,312.832,152.816,320.016,144,320.016z M240,224.016c-8.816,0-16-7.184-16-16s7.184-16,16-16s16,7.184,16,16    S248.816,224.016,240,224.016z M320,304.016c-8.816,0-16-7.184-16-16c0-8.816,7.184-16,16-16c8.816,0,16,7.184,16,16    S328.816,304.016,320,304.016z M448,176.016c-8.816,0-16-7.184-16-16s7.184-16,16-16c8.816,0,16,7.184,16,16    S456.816,176.016,448,176.016z"/>
	</g>
</g>
<g>
</g>
<g>
</g>
<g>
</g>
<g>
</g>
<g>
</g>
<g>
</g>
<g>
</g>
<g>
</g>
<g>
</g>
<g>
</g>
<g>
</g>
<g>
</g>
<g>
</g>
<g>
</g>
<g>
</g>
</svg>
