<?xml version="1.0" encoding="iso-8859-1"?>
<!-- Generator: Adobe Illustrator 19.0.0, SVG Export Plug-In . SVG Version: 6.00 Build 0)  -->
<svg xmlns="http://www.w3.org/2000/svg" xmlns:xlink="http://www.w3.org/1999/xlink" version="1.1" id="Capa_1" x="0px" y="0px" viewBox="0 0 512 512" style="enable-background:new 0 0 512 512;" xml:space="preserve">
<g>
	<g>
		<path d="M32,448V0H0v464c0,8.832,7.168,16,16,16h64v32h32v-32h48v32h32v-32h48v32h32v-32h48v32h32v-32h48v32h32v-32h80v-32H32z"/>
	</g>
</g>
<g>
	<g>
		<path d="M436.688,100.688L352,185.376l-36.688-36.688C312.32,145.68,308.24,144,304,144s-8.32,1.68-11.312,4.688L144,297.376V256    h-32v80c0,8.832,7.168,16,16,16h80v-32h-41.376L304,182.64l36.688,36.688c3.008,3.008,7.072,4.688,11.312,4.688    c4.24,0,8.32-1.68,11.312-4.688l96-96.016L436.688,100.688z"/>
	</g>
</g>
<g>
</g>
<g>
</g>
<g>
</g>
<g>
</g>
<g>
</g>
<g>
</g>
<g>
</g>
<g>
</g>
<g>
</g>
<g>
</g>
<g>
</g>
<g>
</g>
<g>
</g>
<g>
</g>
<g>
</g>
</svg>
